<svg xmlns="http://www.w3.org/2000/svg" xmlns:xlink="http://www.w3.org/1999/xlink" width="24" height="24" viewBox="0 0 24 24" fill="none"><g opacity="1"  transform="translate(0 0)  rotate(0)"><path id="圆形 1" fill-rule="evenodd" style="fill:#A3C5CC" opacity="1" d="M12 0C5.37 0 0 5.37 0 12C0 18.63 5.37 24 12 24C18.63 24 24 18.63 24 12C24 5.37 18.63 0 12 0Z"></path><g opacity="1"  transform="translate(6 6)  rotate(0)"><path id="矩形 2" fill-rule="evenodd" fill="url(#linear_0)" opacity="1" d="M0 14L12 14L12 2L0 2L0 14Z"></path><path id="圆形 1" fill-rule="evenodd" fill="url(#linear_1)" opacity="1" d="M6 0C2.69 0 0 0.989997 0 2.21999C0 3.44999 2.69 4.43999 6 4.43999C9.31 4.43999 12 3.44999 12 2.21999C12 0.989997 9.31 0 6 0Z"></path></g></g><defs><linearGradient id="linear_0" x1="50%" y1="0%" x2="51%" y2="100%" gradientUnits="objectBoundingBox"><stop offset="0" stop-color="#FCE940" stop-opacity="1" /><stop offset="1" stop-color="#FCE940" stop-opacity="0" /></linearGradient><linearGradient id="linear_1" x1="50%" y1="0%" x2="51%" y2="100%" gradientUnits="objectBoundingBox"><stop offset="0" stop-color="#FFEB3B" stop-opacity="1" /><stop offset="1" stop-color="#FFFFFF" stop-opacity="1" /></linearGradient></defs></svg>