<svg xmlns="http://www.w3.org/2000/svg" viewBox="0 0 48 48"><defs><linearGradient id="oaLaxPwHiJCY6PLTr6Wcta" x1="242.184" x2="248.89" y1="531.254" y2="531.254" gradientTransform="scale(1 -1) rotate(-45 -521.02 515.083)" gradientUnits="userSpaceOnUse"><stop offset="0" stop-color="#704217"/><stop offset=".258" stop-color="#d99858"/><stop offset=".999" stop-color="#613400"/></linearGradient><linearGradient id="oaLaxPwHiJCY6PLTr6Wctc" x1="10.408" x2="16.208" y1="38.319" y2="32.518" gradientUnits="userSpaceOnUse"><stop offset="0" stop-color="#d99858" stop-opacity="0"/><stop offset=".181" stop-color="#d39353" stop-opacity=".052"/><stop offset=".396" stop-color="#c18446" stop-opacity=".202"/><stop offset=".63" stop-color="#a36b30" stop-opacity=".45"/><stop offset=".875" stop-color="#7a4912" stop-opacity=".795"/><stop offset=".999" stop-color="#613400"/></linearGradient><linearGradient id="oaLaxPwHiJCY6PLTr6Wctd" x1="242.17" x2="248.899" y1="512.805" y2="512.805" gradientTransform="scale(1 -1) rotate(-45 -521.02 515.083)" gradientUnits="userSpaceOnUse"><stop offset="0" stop-color="#838380"/><stop offset=".055" stop-color="#878784"/><stop offset=".108" stop-color="#92928f"/><stop offset=".16" stop-color="#a5a5a3"/><stop offset=".212" stop-color="#bfbfbe"/><stop offset=".258" stop-color="#ddd"/><stop offset=".311" stop-color="#cececd"/><stop offset=".441" stop-color="#aeaeab"/><stop offset=".574" stop-color="#959591"/><stop offset=".709" stop-color="#83837e"/><stop offset=".849" stop-color="#787873"/><stop offset=".999" stop-color="#75756f"/></linearGradient><linearGradient id="oaLaxPwHiJCY6PLTr6Wctf" x1="21.752" x2="15.964" y1="26.274" y2="32.061" gradientUnits="userSpaceOnUse"><stop offset="0" stop-color="#ddd" stop-opacity="0"/><stop offset=".416" stop-color="#dadada" stop-opacity=".024"/><stop offset=".594" stop-color="#cececd" stop-opacity=".11"/><stop offset=".726" stop-color="#babab8" stop-opacity=".259"/><stop offset=".837" stop-color="#9d9d9a" stop-opacity=".47"/><stop offset=".932" stop-color="#777774" stop-opacity=".742"/><stop offset="1" stop-color="#54544f"/></linearGradient><linearGradient id="oaLaxPwHiJCY6PLTr6Wctg" x1="23.047" x2="21.461" y1="24.982" y2="26.568" gradientUnits="userSpaceOnUse"><stop offset="0" stop-color="#4a4a46"/><stop offset=".478" stop-color="#ddd"/><stop offset=".548" stop-color="#d1d1d1"/><stop offset=".673" stop-color="#b2b2b1"/><stop offset=".839" stop-color="#80807e"/><stop offset="1" stop-color="#4a4a46"/></linearGradient><radialGradient id="oaLaxPwHiJCY6PLTr6Wctb" cx="11.45" cy="36.328" r="7.775" gradientTransform="rotate(126.048 8.515 30.563) scale(1 .683)" gradientUnits="userSpaceOnUse"><stop offset="0" stop-color="#d9c189"/><stop offset=".16" stop-color="#d4bc84"/><stop offset=".35" stop-color="#c5ae76"/><stop offset=".557" stop-color="#ad975f"/><stop offset=".775" stop-color="#8c763f"/><stop offset=".999" stop-color="#614d16"/></radialGradient><radialGradient id="oaLaxPwHiJCY6PLTr6Wcte" cx="9.988" cy="39.747" r="5.894" gradientTransform="rotate(126.048 6.778 33.44) scale(1 .683)" gradientUnits="userSpaceOnUse"><stop offset="0" stop-color="#d93b3b"/><stop offset=".196" stop-color="#d43837"/><stop offset=".431" stop-color="#c52e2d"/><stop offset=".684" stop-color="#ad1f1c"/><stop offset=".95" stop-color="#8c0905"/><stop offset=".999" stop-color="#850500"/></radialGradient></defs><g data-name="paintbrush"><path fill="url(#oaLaxPwHiJCY6PLTr6Wcta)" d="M20.648,22.648C30.4,13.693,37.515,6.96,41.183,3.611a2.252,2.252,0,0,1,3.116.078l.031.031a2.257,2.257,0,0,1,.087,3.11c-3.308,3.675-10.11,10.746-19.035,20.552C23.4,29.56,22.591,25.952,21,27,20.6,27.261,17.662,25.392,20.648,22.648Z"/><path fill="url(#oaLaxPwHiJCY6PLTr6Wctb)" d="M15,31c-4,0-7,2-7,6,0,5,2,3,2,3s0,2,5,0c2-2,2-4,2-7Z"/><path fill="url(#oaLaxPwHiJCY6PLTr6Wctc)" d="M15,31c-4,0-7,2-7,6,0,5-5,5-5,5a10.818,10.818,0,0,0,12-2c2-2,2-4,2-7Z" opacity=".3"/><path fill="url(#oaLaxPwHiJCY6PLTr6Wctd)" d="M16.8,32.9l-1.7-1.7a1,1,0,0,1-.15-1.224,32.493,32.493,0,0,1,5.7-7.332l4.734,4.734a33.017,33.017,0,0,1-7.366,5.67A.993.993,0,0,1,16.8,32.9Z"/><path fill="url(#oaLaxPwHiJCY6PLTr6Wcte)" d="M8,37c0,5-5,5-5,5a10.814,10.814,0,0,0,12-2c0-2-2.375-.25-4-1S9,36,8,37Z"/><path fill="url(#oaLaxPwHiJCY6PLTr6Wctf)" d="M16.8,32.9l-1.7-1.7a1,1,0,0,1-.15-1.224,32.493,32.493,0,0,1,5.7-7.332l4.734,4.734a33.017,33.017,0,0,1-7.366,5.67A.993.993,0,0,1,16.8,32.9Z"/><path fill="url(#oaLaxPwHiJCY6PLTr6Wctg)" d="M25.38,27.38c-.49.53-1,1.03-1.51,1.49l-4.72-4.72c.47-.5.97-1.01,1.5-1.5Z" opacity=".5"/></g></svg>